<svg xmlns="http://www.w3.org/2000/svg" viewBox="0 0 105.38 28.34"><defs><style>.cls-1{fill:#fff;}</style></defs><g id="Layer_2" data-name="Layer 2"><g id="Layer_1-2" data-name="Layer 1"><path class="cls-1" d="M4.29,18.28V28H0V2.32H11.53c6.08,0,9.18,2.92,9.18,7.31,0,3.76-2.75,6.4-6.68,7.14a6.8,6.8,0,0,1,2.88,1c1.44.95,2.21,2.68,3.06,5.63l1.3,4.6H16.7l-1.2-4.53c-1.12-4.25-2.14-5.17-6.64-5.17Zm0-12.23v9.1h6c3.94,0,6.15-1.76,6.15-4.67s-1.75-4.43-6-4.43Z"/><path class="cls-1" d="M42.57,23.62a9.74,9.74,0,0,1-8.79,4.72C27,28.34,23.55,24,23.55,18.25c0-5.59,3.8-10.34,10.09-10.34s9.42,4.57,9.42,9.91V19.3H27.7c.32,3.38,2.35,5.49,6,5.49A5.58,5.58,0,0,0,39,21.66Zm-14.84-7H38.88c-.18-3-1.76-5.2-5.27-5.2C30.27,11.43,28.19,13.39,27.73,16.63Z"/><path class="cls-1" d="M51.35,0V28H47.09V0Z"/><path class="cls-1" d="M55.24,23.41a4.88,4.88,0,0,1,2.5-4.5c1.4-.87,3.23-1.37,6.61-2.07s4.71-1.37,4.71-2.81S68,11.29,65,11.29a5.4,5.4,0,0,0-5.48,4L55.7,14.06c1.65-4.08,5.13-6.15,9.49-6.15,4.89,0,8,2.43,8,7v7.45c0,2,.66,2.61,2,2.61a3.51,3.51,0,0,0,1.41-.29v2.85a6,6,0,0,1-3,.74c-3.13,0-4.47-1.51-4.47-5.06a7.92,7.92,0,0,1-7.66,5.1C57.49,28.34,55.24,26.4,55.24,23.41Zm14-4.67V17.33c-.6.81-1.9,1.3-4.47,1.87-3.51.73-5.2,1.51-5.2,3.51,0,1.55,1.23,2.43,3.52,2.43A6.35,6.35,0,0,0,69.2,18.74Z"/><path class="cls-1" d="M90.4,28.23a7.23,7.23,0,0,1-6.82-4.36V28H79.36V0h4.26V12.48a7.47,7.47,0,0,1,7.1-4.43c4.5,0,8.33,3.13,8.33,10C99.05,24.61,95.11,28.23,90.4,28.23Zm4.32-10.12c0-4.12-2-6.65-5.69-6.65-3.87,0-5.77,2.88-5.77,6.68S85,24.71,89.1,24.71C92.86,24.71,94.72,22.08,94.72,18.11Z"/><path class="cls-1" d="M101.5,7.82a3.88,3.88,0,1,1,3.88-3.88A3.88,3.88,0,0,1,101.5,7.82Zm0-6a2.08,2.08,0,1,0,2.08,2.08A2.08,2.08,0,0,0,101.5,1.86Z"/></g></g></svg>